<svg width="16" height="16" viewBox="0 0 16 16" fill="none" xmlns="http://www.w3.org/2000/svg">
<g id="Right arrow" clip-path="url(#clip0_2274_23059)">
<path id="Vector" d="M0.945869 8.46678L12.7953 8.46678L9.6894 11.5633C9.51217 11.7405 9.41261 11.9808 9.41261 12.2315C9.41261 12.4821 9.51217 12.7225 9.6894 12.8997C9.86662 13.0769 10.107 13.1765 10.3576 13.1765C10.6083 13.1765 10.8486 13.0769 11.0259 12.8997L15.7318 8.19384C15.8174 8.10433 15.8846 7.99878 15.9294 7.88325C16.0235 7.65411 16.0235 7.3971 15.9294 7.16796C15.8846 7.05243 15.8174 6.94688 15.7318 6.85737L11.0259 2.15149C10.9384 2.06327 10.8343 1.99325 10.7196 1.94547C10.6049 1.89769 10.4819 1.87309 10.3576 1.87309C10.2334 1.87309 10.1104 1.89769 9.99568 1.94547C9.88099 1.99325 9.77689 2.06327 9.6894 2.15149C9.60118 2.23898 9.53117 2.34307 9.48338 2.45777C9.4356 2.57246 9.411 2.69547 9.411 2.81972C9.411 2.94397 9.4356 3.06698 9.48338 3.18167C9.53117 3.29637 9.60118 3.40046 9.6894 3.48795L12.7953 6.58443L0.945869 6.58443C0.696253 6.58443 0.456861 6.68358 0.280356 6.86009C0.103852 7.03659 0.00469259 7.27599 0.00469257 7.5256C0.00469255 7.77522 0.103852 8.01461 0.280356 8.19111C0.456861 8.36762 0.696253 8.46678 0.945869 8.46678Z" fill="white"/>
</g>
<defs>
<clipPath id="clip0_2274_23059">
<rect width="16" height="16" fill="white" transform="translate(16 16) rotate(-180)"/>
</clipPath>
</defs>
</svg>
