<svg width="16" height="17" viewBox="0 0 16 17" fill="none" xmlns="http://www.w3.org/2000/svg">
<g id="Solid / star half alt">
<path id="Vector" d="M14.6673 7.23337C14.734 6.90004 14.4673 6.50004 14.134 6.50004L10.334 5.96671L8.60065 2.50004C8.53398 2.36671 8.46732 2.30004 8.33398 2.23337C8.00065 2.03337 7.60065 2.16671 7.40065 2.50004L5.73398 5.96671L1.93398 6.50004C1.73398 6.50004 1.60065 6.56671 1.53398 6.70004C1.26732 6.96671 1.26732 7.36671 1.53398 7.63337L4.26732 10.3L3.60065 14.1C3.60065 14.2334 3.60065 14.3667 3.66732 14.5C3.86732 14.8334 4.26732 14.9667 4.60065 14.7667L8.00065 12.9667L11.4007 14.7667C11.4673 14.8334 11.6007 14.8334 11.734 14.8334C11.8007 14.8334 11.8007 14.8334 11.8673 14.8334C12.2007 14.7667 12.4673 14.4334 12.4007 14.0334L11.734 10.2334L14.4673 7.56671C14.6007 7.50004 14.6673 7.36671 14.6673 7.23337ZM10.534 9.56671C10.4007 9.70004 10.334 9.96671 10.334 10.1667L10.8007 12.9667L8.26732 11.6334C8.20065 11.5667 8.06732 11.5667 7.93398 11.5667V4.30004L9.20065 6.83337C9.26732 7.03337 9.46732 7.16671 9.73398 7.16671L12.534 7.56671L10.534 9.56671Z" fill="#FF914D"/>
</g>
</svg>
